<?xml version="1.0" standalone="no"?>
<!DOCTYPE svg PUBLIC "-//W3C//DTD SVG 20010904//EN"
 "http://www.w3.org/TR/2001/REC-SVG-20010904/DTD/svg10.dtd">
<svg version="1.0" xmlns="http://www.w3.org/2000/svg"
 width="500.000000pt" height="500.000000pt" viewBox="0 0 500.000000 500.000000"
 preserveAspectRatio="xMidYMid meet">
<metadata>
Created by potrace 1.14, written by Peter Selinger 2001-2017
</metadata>
<g transform="translate(0.000000,500.000000) scale(0.100000,-0.100000)"
fill="#000000" stroke="none">
<path d="M4515 4844 c-9 -7 -23 -10 -31 -7 -8 3 -14 0 -14 -6 0 -6 -3 -10 -8
-8 -12 4 -122 -45 -122 -55 0 -5 -4 -6 -10 -3 -5 3 -10 1 -10 -5 0 -7 -5 -10
-12 -8 -6 2 -21 -5 -34 -16 -58 -53 -110 -105 -123 -124 -8 -12 -18 -19 -23
-16 -4 3 -8 -2 -8 -10 0 -9 -4 -16 -8 -16 -7 0 -55 -37 -93 -72 -11 -10 -24
-18 -31 -18 -6 0 -8 -3 -5 -7 7 -6 -35 -41 -41 -35 -2 2 -12 -6 -22 -18 -10
-12 -22 -21 -27 -21 -4 1 -23 -4 -40 -10 -18 -6 -37 -8 -43 -4 -5 3 -10 0 -10
-7 0 -8 -3 -9 -8 -3 -4 6 -34 11 -67 12 -33 1 -100 2 -150 3 -49 1 -92 1 -95
1 -3 -1 -26 -4 -52 -6 -97 -7 -157 -16 -188 -27 -41 -15 -102 -31 -115 -31 -8
0 -15 -5 -15 -10 0 -5 -7 -7 -15 -3 -8 3 -15 2 -15 -3 0 -4 -6 -8 -12 -9 -30
-2 -135 -13 -153 -16 -34 -6 -88 21 -140 72 -8 6 -16 12 -19 12 -2 0 -19 13
-37 30 -18 16 -36 27 -41 24 -4 -3 -8 -1 -8 3 0 5 -26 22 -57 38 -32 17 -61
34 -65 40 -4 5 -8 6 -8 1 0 -5 -7 -3 -15 4 -8 7 -15 9 -15 6 0 -4 -7 0 -16 8
-8 9 -21 16 -29 16 -7 0 -16 7 -19 16 -3 8 -10 13 -15 9 -5 -3 -12 -1 -16 5
-3 5 -14 10 -23 10 -9 0 -30 7 -46 15 -15 8 -32 13 -36 10 -5 -3 -11 -1 -15 5
-4 6 -10 8 -15 5 -5 -3 -19 -1 -30 5 -15 8 -20 8 -20 -1 0 -6 -7 -8 -16 -5 -9
3 -34 2 -55 -4 -52 -14 -93 -68 -95 -125 -1 -24 -4 -48 -8 -54 -4 -6 -4 -11 1
-11 4 0 9 -12 10 -28 4 -40 8 -56 16 -69 5 -7 5 -13 1 -13 -3 0 -1 -7 6 -15 7
-8 10 -15 6 -15 -3 0 3 -15 14 -32 10 -18 35 -64 54 -101 19 -38 40 -75 47
-83 6 -8 8 -14 3 -14 -5 0 -4 -4 1 -8 10 -7 22 -27 59 -94 11 -21 23 -38 28
-38 4 0 8 -9 8 -20 0 -11 5 -20 11 -20 6 0 9 -9 6 -20 -3 -11 -1 -23 4 -26 5
-3 8 -11 7 -17 -3 -19 33 -117 43 -117 5 0 9 -9 9 -19 0 -11 4 -22 9 -25 11
-7 7 -86 -7 -139 -6 -20 -9 -69 -7 -107 2 -41 -1 -70 -6 -70 -6 0 -7 -4 -4
-10 3 -5 2 -10 -4 -10 -5 0 -17 -7 -26 -16 -8 -9 -27 -17 -40 -18 -14 0 -25
-5 -25 -9 0 -5 -5 -5 -12 -1 -14 9 -131 5 -138 -4 -3 -4 -14 -7 -25 -6 -11 0
-35 -5 -54 -13 -18 -7 -42 -13 -52 -13 -11 0 -19 -4 -19 -10 0 -5 -7 -7 -15
-4 -8 4 -15 1 -15 -5 0 -6 -3 -10 -7 -9 -23 5 -129 -38 -194 -78 -20 -13 -39
-21 -41 -18 -3 2 -17 -7 -31 -20 -15 -14 -27 -23 -27 -20 0 2 -18 -8 -40 -22
-22 -15 -40 -31 -40 -36 0 -5 -4 -7 -9 -3 -5 3 -16 -2 -24 -10 -9 -8 -21 -15
-27 -15 -6 0 -8 -4 -5 -10 3 -5 -1 -10 -10 -10 -8 0 -18 -7 -21 -15 -4 -8 -12
-15 -20 -15 -8 0 -14 -5 -14 -11 0 -5 -4 -7 -10 -4 -5 3 -10 -1 -10 -9 0 -9
-5 -16 -11 -16 -20 0 -225 -219 -255 -272 -5 -10 -13 -15 -17 -12 -4 4 -7 2
-7 -4 0 -11 -25 -44 -63 -84 -10 -11 -43 -51 -73 -91 -30 -40 -64 -85 -77
-101 -12 -16 -22 -34 -22 -39 0 -5 -9 -15 -19 -23 -11 -8 -17 -14 -13 -14 8 0
-43 -81 -58 -92 -5 -4 -6 -8 -2 -8 5 0 -1 -13 -12 -29 -12 -16 -21 -34 -21
-39 0 -6 -4 -12 -8 -14 -10 -4 -87 -160 -84 -170 1 -5 -3 -8 -9 -8 -6 0 -9 -7
-5 -15 3 -8 2 -15 -3 -15 -9 0 -26 -48 -23 -62 1 -5 -3 -8 -8 -8 -6 0 -10 -6
-10 -14 0 -7 -11 -39 -25 -70 -14 -31 -22 -56 -19 -56 3 0 -2 -10 -10 -22 -9
-12 -16 -30 -16 -39 0 -10 -3 -19 -7 -21 -9 -3 -46 -92 -65 -156 -7 -23 -16
-42 -20 -42 -5 0 -8 -9 -8 -19 0 -11 -5 -23 -10 -26 -6 -4 -8 -11 -5 -16 4 -5
1 -9 -5 -9 -6 0 -9 -4 -5 -10 3 -5 1 -17 -5 -27 -22 -38 -47 -132 -36 -137 8
-3 8 -5 0 -5 -8 -1 -9 -12 -4 -35 4 -19 5 -37 2 -40 -3 -3 -6 -32 -7 -63 -2
-32 -6 -69 -10 -83 -4 -14 -8 -32 -9 -40 -2 -8 -9 -35 -16 -60 -11 -39 -16
-63 -24 -105 -1 -5 -4 -14 -7 -20 -4 -5 -5 -20 -4 -33 1 -12 -1 -22 -5 -22 -4
0 -7 -19 -8 -41 -1 -23 -7 -48 -13 -55 -8 -10 -8 -14 0 -14 7 0 8 -8 1 -26 -7
-18 -7 -23 1 -18 8 4 8 1 2 -12 -11 -22 -11 -34 0 -51 5 -8 4 -13 -3 -13 -6 0
-8 -5 -4 -12 4 -6 9 -29 10 -50 2 -21 6 -43 9 -48 3 -6 1 -10 -6 -10 -8 0 -8
-4 1 -15 7 -9 11 -18 8 -21 -3 -2 0 -30 6 -62 7 -31 11 -83 11 -115 l-2 -57
1116 4 c614 2 1144 6 1179 9 34 3 62 1 62 -3 0 -6 257 -10 601 -10 403 0 598
3 594 10 -3 5 -1 10 6 10 7 0 9 3 6 7 -4 3 -2 11 3 18 5 6 12 29 16 50 3 21
10 49 15 62 5 13 6 23 3 23 -2 0 0 8 5 18 6 11 12 30 15 43 3 13 8 35 11 49
11 39 12 154 2 167 -5 7 -6 17 -3 22 4 5 2 12 -3 15 -11 7 -9 96 2 96 4 0 7 6
6 13 -1 6 2 30 6 52 5 22 8 43 7 47 -1 5 3 8 8 8 5 0 9 3 8 7 -2 12 14 67 23
78 4 6 8 12 8 15 8 35 15 50 22 50 5 0 6 7 3 15 -4 8 -1 15 5 15 6 0 11 7 11
15 0 8 5 15 12 15 6 0 8 3 5 6 -4 4 7 24 23 44 16 20 27 40 23 44 -3 3 0 6 8
6 14 0 45 39 41 52 -1 5 2 7 7 5 5 -1 24 14 44 33 19 19 49 46 67 60 17 14 40
32 51 42 11 9 38 31 61 50 23 18 47 39 54 45 7 7 18 13 24 13 6 0 8 5 5 10 -3
6 -2 10 3 10 5 0 21 11 36 25 15 14 24 25 20 25 -4 0 2 10 14 23 17 18 35 52
47 87 1 3 7 17 12 31 6 14 14 50 18 80 4 30 9 57 11 61 2 3 -2 9 -8 11 -10 4
-10 6 -1 6 7 1 10 8 6 18 -5 12 -3 14 8 8 11 -7 12 -6 3 6 -12 15 -12 87 0
107 4 7 3 12 -1 12 -5 0 -9 9 -9 20 0 11 3 20 7 20 8 0 5 42 -4 57 -4 6 -3 14
2 17 10 7 13 466 2 466 -3 0 -7 15 -7 33 -1 17 -4 41 -8 52 -32 112 -42 164
-39 204 2 25 4 56 4 69 -1 12 3 22 7 22 7 0 10 26 14 127 1 34 6 59 11 56 5
-3 5 3 -1 13 -5 11 -12 42 -15 69 -3 28 -8 67 -11 88 -3 20 -1 37 4 37 6 0 6
10 0 25 -5 14 -6 25 -2 25 7 0 8 7 11 140 2 64 -1 108 -9 118 -2 1 -3 5 -4 10
-1 4 -5 13 -9 20 -5 6 -5 12 0 12 4 0 3 4 -2 8 -15 10 -76 134 -62 125 6 -3 1
7 -11 24 -12 17 -22 35 -22 40 0 5 -8 18 -17 29 -19 20 -27 54 -13 54 4 0 11
16 14 35 4 19 11 35 17 35 6 0 8 4 4 9 -3 5 -1 12 4 16 6 3 7 13 4 22 -4 9 -2
14 3 10 10 -6 42 88 46 136 1 15 6 27 10 27 4 0 8 11 8 26 0 14 7 57 16 96 9
38 17 75 18 82 1 6 5 17 9 24 5 6 6 12 2 12 -3 0 1 16 9 35 8 19 12 35 9 35
-3 0 0 6 6 14 6 7 12 25 13 40 1 14 6 26 11 26 5 0 7 7 3 15 -3 8 -1 15 5 15
6 0 7 5 4 10 -4 6 -1 18 7 27 11 14 11 16 -2 8 -12 -7 -13 -6 -3 6 13 16 20
99 10 116 -4 6 -3 15 3 18 8 5 8 11 1 19 -6 7 -9 15 -6 18 3 3 -1 21 -9 40
-14 32 -32 48 -61 54 -5 1 -12 3 -15 4 -18 8 -71 4 -85 -6z"/>
</g>
</svg>
