<svg xmlns="http://www.w3.org/2000/svg" xmlns:xlink="http://www.w3.org/1999/xlink" width="500" zoomAndPan="magnify" viewBox="0 0 375 374.999991" height="500" preserveAspectRatio="xMidYMid meet" version="1.0"><defs><g/><clipPath id="5e31b62711"><path d="M 7.433594 26.976562 L 372.980469 26.976562 L 372.980469 346.363281 L 7.433594 346.363281 Z M 7.433594 26.976562 " clip-rule="nonzero"/></clipPath><clipPath id="d2aca39d6b"><path d="M 189.941406 26.976562 L 372.445312 346.363281 L 7.433594 346.363281 Z M 189.941406 26.976562 " clip-rule="nonzero"/></clipPath><clipPath id="8ee8f3a715"><path d="M 7.433594 176.777344 L 372.980469 176.777344 L 372.980469 375 L 7.433594 375 Z M 7.433594 176.777344 " clip-rule="nonzero"/></clipPath><clipPath id="2136c746dd"><path d="M 189.941406 176.777344 L 372.445312 496.164062 L 7.433594 496.164062 Z M 189.941406 176.777344 " clip-rule="nonzero"/></clipPath><clipPath id="b433329adf"><path d="M 126 81 L 193 81 L 193 187 L 126 187 Z M 126 81 " clip-rule="nonzero"/></clipPath><clipPath id="386dc09711"><path d="M 126.894531 86.144531 L 134.355469 81.800781 L 192.910156 182.339844 L 185.449219 186.683594 Z M 126.894531 86.144531 " clip-rule="nonzero"/></clipPath><clipPath id="5b251b9018"><path d="M 126.894531 86.144531 L 134.355469 81.800781 L 192.898438 182.320312 L 185.4375 186.667969 Z M 126.894531 86.144531 " clip-rule="nonzero"/></clipPath><clipPath id="a473889233"><path d="M 68 104 L 222 104 L 222 234 L 68 234 Z M 68 104 " clip-rule="nonzero"/></clipPath><clipPath id="3297d1ab70"><path d="M 256.773438 172.21875 L 185.359375 295.730469 L 68.683594 228.265625 L 140.097656 104.753906 Z M 256.773438 172.21875 " clip-rule="nonzero"/></clipPath><clipPath id="881ec891e3"><path d="M 221.167969 233.796875 L 68.886719 227.910156 L 140.097656 104.753906 Z M 221.167969 233.796875 " clip-rule="nonzero"/></clipPath></defs><g clip-path="url(#5e31b62711)"><g clip-path="url(#d2aca39d6b)"><path fill="#000000" d="M 7.433594 26.976562 L 372.980469 26.976562 L 372.980469 346.363281 L 7.433594 346.363281 Z M 7.433594 26.976562 " fill-opacity="1" fill-rule="nonzero"/></g></g><g clip-path="url(#8ee8f3a715)"><g clip-path="url(#2136c746dd)"><path fill="#ffffff" d="M 7.433594 176.777344 L 372.980469 176.777344 L 372.980469 496.164062 L 7.433594 496.164062 Z M 7.433594 176.777344 " fill-opacity="1" fill-rule="nonzero"/></g></g><g clip-path="url(#b433329adf)"><g clip-path="url(#386dc09711)"><g clip-path="url(#5b251b9018)"><path fill="#ffffff" d="M 126.894531 86.144531 L 134.355469 81.800781 L 192.890625 182.3125 L 185.433594 186.65625 Z M 126.894531 86.144531 " fill-opacity="1" fill-rule="nonzero"/></g></g></g><g clip-path="url(#a473889233)"><g clip-path="url(#3297d1ab70)"><g clip-path="url(#881ec891e3)"><path fill="#ffffff" d="M 256.773438 172.21875 L 185.621094 295.273438 L 68.945312 227.8125 L 140.097656 104.753906 Z M 256.773438 172.21875 " fill-opacity="1" fill-rule="nonzero"/></g></g></g><g fill="#000000" fill-opacity="1"><g transform="translate(122.404686, 345.785789)"><g><path d="M 18.164062 -15.152344 C 19.9375 -16.347656 20.910156 -18.296875 20.910156 -21.042969 C 20.910156 -26.140625 17.5 -29.683594 12.226562 -29.683594 L 2.4375 -29.683594 L 2.4375 0 L 12.625 0 C 18.207031 0 21.53125 -3.722656 21.53125 -8.816406 C 21.53125 -11.609375 20.335938 -13.824219 18.164062 -15.152344 Z M 12.226562 -23.921875 C 13.824219 -23.921875 15.105469 -22.90625 15.105469 -20.957031 C 15.105469 -19.007812 14 -17.855469 12.183594 -17.855469 L 8.285156 -17.855469 L 8.285156 -23.921875 Z M 8.285156 -12.140625 L 12.625 -12.140625 C 14.53125 -12.140625 15.683594 -10.941406 15.683594 -8.949219 C 15.683594 -6.957031 14.53125 -5.757812 12.625 -5.757812 L 8.285156 -5.757812 Z M 8.285156 -12.140625 "/></g></g></g><g fill="#000000" fill-opacity="1"><g transform="translate(150.359093, 345.785789)"><g><path d="M 11.609375 0.441406 C 18.074219 0.441406 21.175781 -3.722656 21.175781 -9.835938 L 21.175781 -19.804688 C 21.175781 -25.917969 18.074219 -30.082031 11.609375 -30.082031 C 5.183594 -30.082031 2.082031 -25.917969 2.082031 -19.804688 L 2.082031 -9.835938 C 2.082031 -3.722656 5.183594 0.441406 11.609375 0.441406 Z M 11.609375 -5.316406 C 9.171875 -5.316406 7.929688 -6.644531 7.929688 -9.835938 L 7.929688 -19.804688 C 7.929688 -22.992188 9.171875 -24.324219 11.609375 -24.324219 C 14.089844 -24.324219 15.328125 -22.992188 15.328125 -19.804688 L 15.328125 -9.835938 C 15.328125 -6.644531 14.089844 -5.316406 11.609375 -5.316406 Z M 11.609375 -5.316406 "/></g></g></g><g fill="#000000" fill-opacity="1"><g transform="translate(178.313499, 345.785789)"><g><path d="M 22.507812 0 L 16.257812 -12.582031 C 19.449219 -13.867188 21.355469 -17.058594 21.355469 -20.910156 C 21.355469 -25.960938 18.03125 -29.683594 12.671875 -29.683594 L 2.65625 -29.683594 L 2.65625 0 L 8.507812 0 L 8.507812 -12.050781 L 10.058594 -12.050781 L 15.992188 0 Z M 12.671875 -23.921875 C 14.265625 -23.921875 15.507812 -22.773438 15.507812 -20.824219 C 15.507812 -18.828125 14.265625 -17.632812 12.625 -17.632812 L 8.507812 -17.632812 L 8.507812 -23.921875 Z M 12.671875 -23.921875 "/></g></g></g><g fill="#000000" fill-opacity="1"><g transform="translate(206.267902, 345.785789)"><g><path d="M 23.039062 0 L 14.355469 -29.683594 L 8.859375 -29.683594 L 0.175781 0 L 6.203125 0 L 7.972656 -6.46875 L 15.195312 -6.46875 L 16.96875 0 Z M 9.480469 -12.050781 L 11.609375 -21 L 13.734375 -12.050781 Z M 9.480469 -12.050781 "/></g></g></g><g fill="#000000" fill-opacity="1"><g transform="translate(234.22231, 345.785789)"><g><path d="M 7.886719 -17.855469 L 7.886719 -29.683594 L 2.039062 -29.683594 L 2.039062 0 L 7.886719 0 L 7.886719 -12.140625 L 15.285156 -12.140625 L 15.285156 0 L 21.132812 0 L 21.132812 -29.683594 L 15.285156 -29.683594 L 15.285156 -17.855469 Z M 7.886719 -17.855469 "/></g></g></g></svg>