<svg xmlns="http://www.w3.org/2000/svg" xmlns:xlink="http://www.w3.org/1999/xlink" width="500" zoomAndPan="magnify" viewBox="0 0 375 374.999991" height="500" preserveAspectRatio="xMidYMid meet" version="1.0"><defs><g/><clipPath id="6baab21adb"><path d="M 7.433594 26.976562 L 372.980469 26.976562 L 372.980469 346.363281 L 7.433594 346.363281 Z M 7.433594 26.976562 " clip-rule="nonzero"/></clipPath><clipPath id="6e8c732d69"><path d="M 189.941406 26.976562 L 372.445312 346.363281 L 7.433594 346.363281 Z M 189.941406 26.976562 " clip-rule="nonzero"/></clipPath><clipPath id="7f4e9b4fb2"><path d="M 7.433594 176.777344 L 372.980469 176.777344 L 372.980469 375 L 7.433594 375 Z M 7.433594 176.777344 " clip-rule="nonzero"/></clipPath><clipPath id="4c7094086d"><path d="M 189.941406 176.777344 L 372.445312 496.164062 L 7.433594 496.164062 Z M 189.941406 176.777344 " clip-rule="nonzero"/></clipPath><clipPath id="6bef85cb3c"><path d="M 126 81 L 193 81 L 193 187 L 126 187 Z M 126 81 " clip-rule="nonzero"/></clipPath><clipPath id="451ffe9011"><path d="M 126.894531 86.144531 L 134.355469 81.800781 L 192.910156 182.339844 L 185.449219 186.683594 Z M 126.894531 86.144531 " clip-rule="nonzero"/></clipPath><clipPath id="59fb98d4ba"><path d="M 126.894531 86.144531 L 134.355469 81.800781 L 192.898438 182.320312 L 185.4375 186.667969 Z M 126.894531 86.144531 " clip-rule="nonzero"/></clipPath><clipPath id="d717d9598d"><path d="M 68 104 L 222 104 L 222 234 L 68 234 Z M 68 104 " clip-rule="nonzero"/></clipPath><clipPath id="81fd0bea74"><path d="M 256.773438 172.21875 L 185.359375 295.730469 L 68.683594 228.265625 L 140.097656 104.753906 Z M 256.773438 172.21875 " clip-rule="nonzero"/></clipPath><clipPath id="6d4dab62ef"><path d="M 221.167969 233.796875 L 68.886719 227.910156 L 140.097656 104.753906 Z M 221.167969 233.796875 " clip-rule="nonzero"/></clipPath></defs><g clip-path="url(#6baab21adb)"><g clip-path="url(#6e8c732d69)"><path fill="#000000" d="M 7.433594 26.976562 L 372.980469 26.976562 L 372.980469 346.363281 L 7.433594 346.363281 Z M 7.433594 26.976562 " fill-opacity="1" fill-rule="nonzero"/></g></g><g clip-path="url(#7f4e9b4fb2)"><g clip-path="url(#4c7094086d)"><path fill="#ffffff" d="M 7.433594 176.777344 L 372.980469 176.777344 L 372.980469 496.164062 L 7.433594 496.164062 Z M 7.433594 176.777344 " fill-opacity="1" fill-rule="nonzero"/></g></g><g clip-path="url(#6bef85cb3c)"><g clip-path="url(#451ffe9011)"><g clip-path="url(#59fb98d4ba)"><path fill="#ffffff" d="M 126.894531 86.144531 L 134.355469 81.800781 L 192.890625 182.3125 L 185.433594 186.65625 Z M 126.894531 86.144531 " fill-opacity="1" fill-rule="nonzero"/></g></g></g><g clip-path="url(#d717d9598d)"><g clip-path="url(#81fd0bea74)"><g clip-path="url(#6d4dab62ef)"><path fill="#ffffff" d="M 256.773438 172.21875 L 185.621094 295.273438 L 68.945312 227.8125 L 140.097656 104.753906 Z M 256.773438 172.21875 " fill-opacity="1" fill-rule="nonzero"/></g></g></g><g fill="#000000" fill-opacity="1"><g transform="translate(131.669623, 345.731958)"><g><path d="M 20.761719 -17.320312 C 22.789062 -18.6875 23.902344 -20.914062 23.902344 -24.054688 C 23.902344 -29.878906 20.003906 -33.929688 13.976562 -33.929688 L 2.785156 -33.929688 L 2.785156 0 L 14.433594 0 C 20.8125 0 24.613281 -4.253906 24.613281 -10.078125 C 24.613281 -13.269531 23.246094 -15.800781 20.761719 -17.320312 Z M 13.976562 -27.347656 C 15.800781 -27.347656 17.269531 -26.183594 17.269531 -23.953125 C 17.269531 -21.726562 16.003906 -20.410156 13.925781 -20.410156 L 9.46875 -20.410156 L 9.46875 -27.347656 Z M 9.46875 -13.875 L 14.433594 -13.875 C 16.609375 -13.875 17.925781 -12.507812 17.925781 -10.230469 C 17.925781 -7.949219 16.609375 -6.582031 14.433594 -6.582031 L 9.46875 -6.582031 Z M 9.46875 -13.875 "/></g></g></g><g fill="#000000" fill-opacity="1"><g transform="translate(163.624225, 345.731958)"><g><path d="M 13.269531 0.507812 C 20.664062 0.507812 24.207031 -4.253906 24.207031 -11.242188 L 24.207031 -22.636719 C 24.207031 -29.625 20.664062 -34.386719 13.269531 -34.386719 C 5.925781 -34.386719 2.378906 -29.625 2.378906 -22.636719 L 2.378906 -11.242188 C 2.378906 -4.253906 5.925781 0.507812 13.269531 0.507812 Z M 13.269531 -6.078125 C 10.484375 -6.078125 9.066406 -7.597656 9.066406 -11.242188 L 9.066406 -22.636719 C 9.066406 -26.285156 10.484375 -27.804688 13.269531 -27.804688 C 16.105469 -27.804688 17.523438 -26.285156 17.523438 -22.636719 L 17.523438 -11.242188 C 17.523438 -7.597656 16.105469 -6.078125 13.269531 -6.078125 Z M 13.269531 -6.078125 "/></g></g></g><g fill="#000000" fill-opacity="1"><g transform="translate(195.578826, 345.731958)"><g><path d="M 25.726562 0 L 18.585938 -14.382812 C 22.230469 -15.851562 24.410156 -19.496094 24.410156 -23.902344 C 24.410156 -29.675781 20.613281 -33.929688 14.484375 -33.929688 L 3.039062 -33.929688 L 3.039062 0 L 9.722656 0 L 9.722656 -13.773438 L 11.496094 -13.773438 L 18.28125 0 Z M 14.484375 -27.347656 C 16.308594 -27.347656 17.726562 -26.03125 17.726562 -23.800781 C 17.726562 -21.523438 16.308594 -20.15625 14.433594 -20.15625 L 9.722656 -20.15625 L 9.722656 -27.347656 Z M 14.484375 -27.347656 "/></g></g></g><g fill="#000000" fill-opacity="1"><g transform="translate(227.533425, 345.731958)"><g><path d="M 26.335938 0 L 16.410156 -33.929688 L 10.128906 -33.929688 L 0.203125 0 L 7.089844 0 L 9.117188 -7.394531 L 17.371094 -7.394531 L 19.394531 0 Z M 10.835938 -13.773438 L 13.269531 -24.003906 L 15.699219 -13.773438 Z M 10.835938 -13.773438 "/></g></g></g></svg>